<svg width="48" height="48" viewBox="0 0 48 48" fill="none" xmlns="http://www.w3.org/2000/svg">
<path d="M45 21.7468C45 12.2369 35.5798 4.5 23.9998 4.5C12.4214 4.5 3 12.2369 3 21.7468C3 30.2725 10.4709 37.4125 20.5626 38.7627C21.2466 38.9118 22.1774 39.219 22.4129 39.8106C22.6246 40.3479 22.5513 41.1897 22.4805 41.7324C22.4805 41.7324 22.2341 43.2321 22.181 43.5515C22.0896 44.0889 21.7591 45.6529 23.9998 44.6971C26.2413 43.7413 36.0939 37.4903 40.4996 32.3581C43.5431 28.9806 45 25.5529 45 21.7468Z" fill="#2CCF54"/>
<path d="M19.733 17.1366H18.26C18.0342 17.1366 17.8506 17.3217 17.8506 17.5492V26.799C17.8506 27.0269 18.0342 27.2117 18.26 27.2117H19.733C19.9589 27.2117 20.142 27.0269 20.142 26.799V17.5492C20.142 17.3217 19.9589 17.1366 19.733 17.1366Z" fill="white"/>
<path d="M29.872 17.1366H28.399C28.1732 17.1366 27.99 17.3217 27.99 17.5492V23.0446L23.7968 17.3201C23.7193 17.2025 23.5935 17.1443 23.4562 17.1366H21.9836C21.7578 17.1366 21.5742 17.3217 21.5742 17.5492V26.799C21.5742 27.0269 21.7578 27.2117 21.9836 27.2117H23.4562C23.6825 27.2117 23.8657 27.0269 23.8657 26.799V21.3053L28.0641 27.0371C28.1395 27.1451 28.2675 27.2117 28.399 27.2117H29.872C30.0983 27.2117 30.2811 27.0269 30.2811 26.799V17.5492C30.2811 17.3217 30.0983 17.1366 29.872 17.1366Z" fill="white"/>
<path d="M16.1826 24.8956H12.1802V17.5499C12.1802 17.3216 11.997 17.1364 11.7716 17.1364H10.2982C10.0723 17.1364 9.88916 17.3216 9.88916 17.5499V26.7981C9.88916 27.0226 10.0715 27.2119 10.2978 27.2119H16.1826C16.4084 27.2119 16.5908 27.0263 16.5908 26.7981V25.309C16.5908 25.0808 16.4084 24.8956 16.1826 24.8956Z" fill="white"/>
<path d="M38.0063 19.4527C38.2322 19.4527 38.4145 19.268 38.4145 19.0393V17.5503C38.4145 17.322 38.2322 17.1364 38.0063 17.1364H32.1219C31.8959 17.1364 31.7129 17.3254 31.7129 17.5499V26.7985C31.7129 27.0223 31.8954 27.2119 32.1211 27.2119H38.0063C38.2322 27.2119 38.4145 27.0263 38.4145 26.7985V25.309C38.4145 25.0812 38.2322 24.8956 38.0063 24.8956H34.0043V23.3321H38.0063C38.2322 23.3321 38.4145 23.147 38.4145 22.9187V21.4297C38.4145 21.2014 38.2322 21.0158 38.0063 21.0158H34.0043V19.4527H38.0063Z" fill="white"/>
</svg>
