<svg width="48" height="48" viewBox="0 0 48 48" fill="none" xmlns="http://www.w3.org/2000/svg">
<path d="M38.6952 3H9.30479C5.82275 3 3 5.82275 3 9.30479V38.6952C3 42.1772 5.82275 45 9.30479 45H38.6952C42.1772 45 45 42.1772 45 38.6952V9.30479C45 5.82275 42.1772 3 38.6952 3Z" fill="black"/>
<path d="M31.0429 35.2373H33.6037L17.0776 12.6145H14.3306L31.0402 35.2345L31.0429 35.2373ZM32.6643 9.90308H37.2847L27.1921 21.8471L39.065 38.0994H29.7694L22.4868 28.2423L14.1553 38.0994H9.53212L20.3286 25.3227L8.93506 9.90308H18.4689L25.0504 18.9138L32.6616 9.90308H32.6643Z" fill="white"/>
</svg>
