<svg width="48" height="48" viewBox="0 0 48 48" fill="none" xmlns="http://www.w3.org/2000/svg">
<path d="M12.6764 29.6888C12.9108 27.748 13.7068 26.6613 15.2069 25.5474C17.3532 24.0387 20.0342 24.8921 20.0342 24.8921V19.8294C20.686 19.8127 21.338 19.8513 21.9827 19.9448V26.4601C21.9827 26.4601 19.3025 25.6067 17.1562 27.1161C15.657 28.2293 14.8593 29.3167 14.6258 31.2576C14.6184 32.3115 14.8162 33.6891 15.727 34.8803C15.5018 34.7648 15.2723 34.6333 15.0384 34.4856C13.0321 33.1384 12.6667 31.1172 12.6764 29.6888ZM33.0527 10.4684C31.5763 8.85046 31.018 7.21696 30.8161 6.06946H32.6734C32.6734 6.06946 32.3031 9.07824 35.0021 12.0371L35.0395 12.0769C34.3121 11.6193 33.645 11.0792 33.0527 10.4684ZM42.0001 15.0552V21.4395C42.0001 21.4395 39.63 21.3466 37.876 20.9004C35.4269 20.2763 33.8528 19.3192 33.8528 19.3192C33.8528 19.3192 32.7654 18.6366 32.6775 18.589V31.7724C32.6775 32.5065 32.4765 34.3397 31.8636 35.8687C31.0635 37.8688 29.8288 39.1817 29.6017 39.45C29.6017 39.45 28.1001 41.2247 25.4508 42.4198C23.0628 43.4979 20.9661 43.4706 20.3394 43.4979C20.3394 43.4979 16.7151 43.6414 13.4537 41.5219C12.7485 41.0548 12.0902 40.5257 11.4873 39.9415L11.5036 39.9532C14.7657 42.0727 18.3893 41.9291 18.3893 41.9291C19.0168 41.9018 21.1135 41.9291 23.5007 40.8511C26.1475 39.656 27.6516 37.8813 27.6516 37.8813C27.8763 37.6129 29.1167 36.3001 29.9135 34.2991C30.5247 32.771 30.7274 30.937 30.7274 30.2029V17.0211C30.8153 17.0694 31.9019 17.752 31.9019 17.752C31.9019 17.752 33.4768 18.7099 35.9258 19.3332C37.6806 19.7794 40.0499 19.8723 40.0499 19.8723V14.8696C40.8606 15.0513 41.5516 15.1005 42.0001 15.0552Z" fill="#EE1D52"/>
<path d="M40.0508 14.8696V19.8707C40.0508 19.8707 37.6815 19.7779 35.9267 19.3317C33.4776 18.7076 31.9027 17.7504 31.9027 17.7504C31.9027 17.7504 30.8161 17.0679 30.7282 17.0195V30.2045C30.7282 30.9385 30.5272 32.7725 29.9143 34.3007C29.1143 36.3016 27.8795 37.6145 27.6525 37.8828C27.6525 37.8828 26.15 39.6575 23.5015 40.8526C21.1143 41.9307 19.0177 41.9034 18.3901 41.9307C18.3901 41.9307 14.7666 42.0742 11.5044 39.9547L11.4882 39.943C11.1437 39.6096 10.8196 39.2574 10.5172 38.8884C9.47617 37.6192 8.83806 36.1183 8.67772 35.69C8.67744 35.6882 8.67744 35.6864 8.67772 35.6846C8.41971 34.9404 7.87765 33.1532 7.95171 31.4222C8.08275 28.3682 9.15712 26.4936 9.44117 26.024C10.1935 24.7434 11.1719 23.5976 12.333 22.6377C13.3576 21.8093 14.5189 21.1502 15.7693 20.6875C17.1211 20.1441 18.5686 19.8529 20.0342 19.8294V24.8921C20.0342 24.8921 17.3532 24.0418 15.2077 25.5474C13.7077 26.6613 12.9117 27.748 12.6773 29.6888C12.6675 31.1172 13.033 33.1384 15.0376 34.4864C15.2715 34.6346 15.501 34.7661 15.7262 34.8811C16.0764 35.3363 16.5027 35.733 16.9878 36.0551C18.946 37.2947 20.5869 37.3813 22.6852 36.5762C24.0843 36.0379 25.1375 34.8249 25.6258 33.4808C25.9327 32.6415 25.9286 31.7966 25.9286 30.9229V6.06946H30.8121C31.0139 7.21696 31.5723 8.85046 33.0487 10.4684C33.641 11.0792 34.3081 11.6193 35.0355 12.0769C35.2503 12.2992 36.3491 13.3983 37.7596 14.0731C38.489 14.4219 39.2577 14.6892 40.0508 14.8696Z" fill="black"/>
<path d="M6.73389 34.1355V34.1394L6.85506 34.4678C6.84114 34.4296 6.79611 34.3134 6.73389 34.1355Z" fill="#69C9D0"/>
<path d="M15.7692 20.6876C14.5188 21.1504 13.3575 21.8094 12.3329 22.6378C11.1714 23.5999 10.1932 24.7481 9.44187 26.0312C9.15781 26.4992 8.08345 28.3753 7.95241 31.4293C7.87834 33.1604 8.42041 34.9475 8.67842 35.6917C8.67814 35.6935 8.67814 35.6954 8.67842 35.6972C8.8412 36.1216 9.47687 37.6224 10.5179 38.8955C10.8202 39.2646 11.1444 39.6167 11.4889 39.9502C10.3854 39.2187 9.40119 38.3344 8.56854 37.326C7.5365 36.0677 6.90002 34.5824 6.73398 34.144C6.73379 34.1409 6.73379 34.1378 6.73398 34.1347V34.1292C6.47516 33.3858 5.93147 31.5978 6.00716 29.8645C6.1382 26.8105 7.21256 24.9359 7.49662 24.4663C8.24776 23.1831 9.226 22.0349 10.3876 21.073C11.412 20.2443 12.5734 19.5852 13.824 19.1227C14.604 18.8125 15.4167 18.5837 16.2478 18.4402C17.5004 18.2306 18.7797 18.2124 20.0382 18.3863V19.8295C18.5712 19.8525 17.1223 20.1437 15.7692 20.6876Z" fill="#69C9D0"/>
<path d="M30.8162 6.06953H25.9327V30.9238C25.9327 31.7975 25.9327 32.64 25.6299 33.4817C25.1367 34.825 24.0876 36.038 22.6893 36.5763C20.5902 37.3844 18.9493 37.2947 16.9919 36.0552C16.5059 35.7345 16.0786 35.3392 15.7271 34.8851C17.3948 35.7377 18.8875 35.7229 20.7367 35.0114C22.1342 34.4732 23.1849 33.2601 23.6765 31.916C23.9842 31.0767 23.9801 30.2318 23.9801 29.3589V4.5H30.7234C30.7234 4.5 30.6477 5.11783 30.8162 6.06953ZM40.0508 13.4866V14.8697C39.2592 14.6889 38.4918 14.4217 37.7637 14.0732C36.3532 13.3984 35.2544 12.2993 35.0396 12.077C35.2889 12.2339 35.5476 12.3766 35.8144 12.5044C37.5293 13.3251 39.2182 13.57 40.0508 13.4866Z" fill="#69C9D0"/>
</svg>
